<svg width="44" height="44" viewBox="0 0 44 44" fill="none" xmlns="http://www.w3.org/2000/svg">
<path d="M2 22C2 12.572 2 7.858 4.928 4.928C7.86 2 12.572 2 22 2C31.428 2 36.142 2 39.07 4.928C42 7.86 42 12.572 42 22C42 31.428 42 36.142 39.07 39.07C36.144 42 31.428 42 22 42C12.572 42 7.858 42 4.928 39.07C2 36.144 2 31.428 2 22Z" stroke="#CCCCCC" stroke-width="3.125"/>
<path d="M30 18C32.2091 18 34 16.2091 34 14C34 11.7909 32.2091 10 30 10C27.7909 10 26 11.7909 26 14C26 16.2091 27.7909 18 30 18Z" stroke="#CCCCCC" stroke-width="3.125"/>
<path d="M2 23L5.504 19.934C6.38227 19.1661 7.51949 18.7606 8.68544 18.7996C9.8514 18.8386 10.959 19.3192 11.784 20.144L20.364 28.724C21.0298 29.3896 21.9091 29.7991 22.8471 29.8803C23.7851 29.9616 24.7217 29.7093 25.492 29.168L26.09 28.748C27.2012 27.9675 28.5442 27.5871 29.8996 27.6688C31.2551 27.7506 32.5426 28.2897 33.552 29.198L40 35" stroke="#CCCCCC" stroke-width="3.125" stroke-linecap="round"/>
</svg>
