<svg width="49" height="44" viewBox="0 0 49 44" fill="none" xmlns="http://www.w3.org/2000/svg">
<path d="M2 24.5L24.5 2L47 24.5" stroke="#CCCCCC" stroke-width="3" stroke-linecap="round" stroke-linejoin="round"/>
<path d="M7 19.5V39.5C7 40.163 7.26339 40.7989 7.73223 41.2678C8.20107 41.7366 8.83696 42 9.5 42H17C17.663 42 18.2989 41.7366 18.7678 41.2678C19.2366 40.7989 19.5 40.163 19.5 39.5V29.5C19.5 28.837 19.7634 28.2011 20.2322 27.7322C20.7011 27.2634 21.337 27 22 27H27C27.663 27 28.2989 27.2634 28.7678 27.7322C29.2366 28.2011 29.5 28.837 29.5 29.5V39.5C29.5 40.163 29.7634 40.7989 30.2322 41.2678C30.7011 41.7366 31.337 42 32 42H39.5C40.163 42 40.7989 41.7366 41.2678 41.2678C41.7366 40.7989 42 40.163 42 39.5V19.5" stroke="#CCCCCC" stroke-width="3" stroke-linecap="round" stroke-linejoin="round"/>
</svg>
