<svg width="41" height="34" viewBox="0 0 41 34" fill="none" xmlns="http://www.w3.org/2000/svg">
<path d="M2 6.58332C2 5.47825 2.43899 4.41845 3.22039 3.63704C4.00179 2.85564 5.0616 2.41666 6.16667 2.41666H35.3333C36.4384 2.41666 37.4982 2.85564 38.2796 3.63704C39.061 4.41845 39.5 5.47825 39.5 6.58332V27.4167C39.5 28.5217 39.061 29.5815 38.2796 30.3629C37.4982 31.1443 36.4384 31.5833 35.3333 31.5833H6.16667C5.0616 31.5833 4.00179 31.1443 3.22039 30.3629C2.43899 29.5815 2 28.5217 2 27.4167V6.58332Z" stroke="#CCCCCC" stroke-width="3" stroke-linecap="round" stroke-linejoin="round"/>
<path d="M2 6.58331L20.75 19.0833L39.5 6.58331" stroke="#CCCCCC" stroke-width="3" stroke-linecap="round" stroke-linejoin="round"/>
</svg>
