<svg width="44" height="44" viewBox="0 0 44 44" fill="none" xmlns="http://www.w3.org/2000/svg">
<path d="M17.5556 6.44444L22 2M13.1111 30.8889L30.8889 13.1111M22 42L26.4444 37.5556M32 37.5556C33.4734 37.5556 34.8865 36.9702 35.9284 35.9284C36.9702 34.8865 37.5556 33.4734 37.5556 32C37.5556 30.5266 36.9702 29.1135 35.9284 28.0716C34.8865 27.0298 33.4734 26.4444 32 26.4444C30.5266 26.4444 29.1135 27.0298 28.0716 28.0716C27.0298 29.1135 26.4444 30.5266 26.4444 32C26.4444 33.4734 27.0298 34.8865 28.0716 35.9284C29.1135 36.9702 30.5266 37.5556 32 37.5556ZM12 17.5556C13.4734 17.5556 14.8865 16.9702 15.9284 15.9284C16.9702 14.8865 17.5556 13.4734 17.5556 12C17.5556 10.5266 16.9702 9.1135 15.9284 8.07163C14.8865 7.02976 13.4734 6.44444 12 6.44444C10.5266 6.44444 9.1135 7.02976 8.07163 8.07163C7.02976 9.1135 6.44444 10.5266 6.44444 12C6.44444 13.4734 7.02976 14.8865 8.07163 15.9284C9.1135 16.9702 10.5266 17.5556 12 17.5556ZM7.55556 42C9.02898 42 10.4421 41.4147 11.4839 40.3728C12.5258 39.3309 13.1111 37.9179 13.1111 36.4444C13.1111 34.971 12.5258 33.5579 11.4839 32.5161C10.4421 31.4742 9.02898 30.8889 7.55556 30.8889C6.08213 30.8889 4.66905 31.4742 3.62718 32.5161C2.58532 33.5579 2 34.971 2 36.4444C2 37.9179 2.58532 39.3309 3.62718 40.3728C4.66905 41.4147 6.08213 42 7.55556 42ZM36.4444 13.1111C37.9179 13.1111 39.3309 12.5258 40.3728 11.4839C41.4147 10.4421 42 9.02898 42 7.55556C42 6.08213 41.4147 4.66905 40.3728 3.62718C39.3309 2.58532 37.9179 2 36.4444 2C34.971 2 33.5579 2.58532 32.5161 3.62718C31.4742 4.66905 30.8889 6.08213 30.8889 7.55556C30.8889 9.02898 31.4742 10.4421 32.5161 11.4839C33.5579 12.5258 34.971 13.1111 36.4444 13.1111Z" stroke="#CCCCCC" stroke-width="3" stroke-linecap="round" stroke-linejoin="round"/>
</svg>
